<svg width="44" height="44" viewBox="0 0 44 44" fill="none" xmlns="http://www.w3.org/2000/svg">
<path d="M22.7044 24.5796C22.265 25.019 22.265 25.7312 22.7044 26.1706C22.9241 26.3903 23.212 26.5001 23.4998 26.5001C23.7878 26.5001 24.0757 26.3903 24.2953 26.1706L27.6701 22.7958C27.6964 22.7695 27.7214 22.7419 27.7449 22.7131C27.7552 22.7006 27.7641 22.6873 27.7738 22.6745C27.7862 22.658 27.7989 22.6418 27.8104 22.6247C27.8209 22.609 27.83 22.5927 27.8396 22.5767C27.8488 22.5612 27.8585 22.5461 27.867 22.5302C27.8759 22.5137 27.8833 22.4968 27.8912 22.48C27.899 22.4636 27.9072 22.4474 27.9142 22.4306C27.9209 22.4141 27.9264 22.3974 27.9324 22.3808C27.9389 22.3628 27.9458 22.345 27.9514 22.3266C27.9564 22.31 27.9601 22.2931 27.9643 22.2762C27.969 22.2575 27.9743 22.2389 27.9781 22.2199C27.9819 22.2005 27.9842 22.1808 27.987 22.1612C27.9894 22.1445 27.9926 22.128 27.9943 22.1111C27.9979 22.0748 27.9998 22.0382 27.9998 22.0018C27.9998 22.0013 27.9999 22.0007 27.9999 22.0001C27.9999 21.9996 27.9998 21.999 27.9998 21.9985C27.9998 21.962 27.9979 21.9255 27.9943 21.8891C27.9926 21.8724 27.9895 21.8561 27.9872 21.8396C27.9843 21.8198 27.982 21.8 27.9781 21.7803C27.9743 21.7614 27.9692 21.7431 27.9644 21.7246C27.9602 21.7076 27.9564 21.6904 27.9513 21.6735C27.9458 21.6554 27.939 21.638 27.9326 21.6202C27.9266 21.6032 27.921 21.5862 27.9141 21.5696C27.9073 21.5531 27.8992 21.5372 27.8916 21.5212C27.8835 21.504 27.8759 21.4867 27.8669 21.4698C27.8586 21.4544 27.8492 21.4398 27.8403 21.4249C27.8304 21.4083 27.8211 21.3916 27.8103 21.3755C27.7994 21.359 27.7871 21.3437 27.7754 21.3278C27.7652 21.3143 27.7557 21.3002 27.7449 21.287C27.7224 21.2597 27.6986 21.2336 27.6737 21.2084C27.6725 21.2072 27.6716 21.2059 27.6704 21.2047L24.2954 17.8296C23.856 17.3903 23.1437 17.3903 22.7044 17.8296C22.265 18.269 22.265 18.9812 22.7044 19.4206L24.1589 20.8752H11.125C10.5037 20.8752 10 21.3789 10 22.0002C10 22.6215 10.5037 23.1252 11.125 23.1252H24.1589L22.7044 24.5796Z" fill="black"/>
<path d="M32.875 11.875H18.625C18.0037 11.875 17.5 12.3787 17.5 13V17.5C17.5 18.1213 18.0037 18.625 18.625 18.625C19.2463 18.625 19.75 18.1213 19.75 17.5V14.125H31.75V29.875H19.75V26.4999C19.75 25.8786 19.2463 25.3749 18.625 25.3749C18.0037 25.3749 17.5 25.8786 17.5 26.4999V31C17.5 31.6213 18.0037 32.125 18.625 32.125H32.875C33.4963 32.125 34 31.6213 34 31V13C34 12.3786 33.4963 11.875 32.875 11.875Z" fill="black"/>
</svg>
