<?xml version="1.0" encoding="UTF-8"?> 
    <svg xmlns="http://www.w3.org/2000/svg" width="325" height="286" viewBox="0 0 325 286" fill="none"> 
        <rect x="148" y="200" width="20" height="20" fill="#69a832"></rect> 
        <rect x="181" y="159" width="20" height="61" fill="#69a832"></rect> 
        <rect x="214" y="179" width="20" height="41" fill="#69a832"></rect> 
        <rect x="247" y="136" width="20" height="84" fill="#69a832"></rect> 
        <rect x="55" y="53.1689" width="16.1317" height="16.4609" fill="#69a832"></rect> 
        <rect x="74.0938" y="67.6543" width="14.4856" height="16.4609" fill="#69a832"></rect> 
        <rect x="67.1816" y="72.9219" width="21.3992" height="16.4609" fill="#69a832"></rect> 
        <rect x="77.0566" y="53.8271" width="14.1564" height="10.535" fill="#69a832"></rect> 
        <rect x="91.2129" y="59.7529" width="7.24279" height="16.1317" fill="#69a832"></rect> 
        <rect x="135.986" y="59.4238" width="7.24279" height="16.1317" fill="#69a832"></rect> 
        <rect x="94.8379" y="40" width="16.4609" height="16.1317" fill="#69a832"></rect> 
        <rect x="139.609" y="40" width="16.4609" height="16.1317" fill="#69a832"></rect> 
        <rect x="129.404" y="82.1396" width="16.4609" height="16.1317" fill="#69a832"></rect> 
        <rect x="86.6074" y="103.868" width="16.4609" height="16.1317" fill="#69a832"></rect> 
        <rect x="122.162" y="53.8271" width="14.4856" height="10.535" fill="#69a832"></rect> 
        <rect x="111.297" y="67.6543" width="22.0576" height="11.5226" fill="#69a832"></rect> 
        <rect x="111.297" y="78.1895" width="14.8148" height="5.92592" fill="#69a832"></rect> 
        <rect x="122.486" y="84.1152" width="3.6214" height="5.26749" fill="#69a832"></rect> 
        <rect x="98.4551" y="86.749" width="21.0699" height="14.4856" fill="#69a832"></rect> 
        <rect x="106.357" y="100.247" width="13.1687" height="7.57201" fill="#69a832"></rect> 
        <path d="M306 174.5C306 218.627 263.456 257 207.5 257C151.544 257 109 218.627 109 174.5C109 130.373 151.544 92 207.5 92C263.456 92 306 130.373 306 174.5Z" stroke="currentColor" stroke-width="20"></path> 
        <mask id="path-22-inside-1" fill="white"> <path d="M78.0862 179.327C60.9558 173.962 45.6895 165 33.7 153.27C21.7105 141.54 13.3852 127.421 9.49443 112.22C5.6037 97.0196 6.27327 81.2277 11.4412 66.306C16.6091 51.3844 26.1084 37.8151 39.06 26.8539C52.0116 15.8926 67.9971 7.89362 85.5371 3.59705C103.077 -0.699519 121.605 -1.15483 139.406 2.27324C157.208 5.70132 173.707 12.902 187.378 23.209C201.048 33.516 211.449 46.5963 217.616 61.2394L199.72 66.7179C194.633 54.6411 186.056 43.8532 174.781 35.3526C163.506 26.8519 149.898 20.9132 135.217 18.0859C120.535 15.2586 105.254 15.6341 90.7882 19.1777C76.3222 22.7213 63.1382 29.3184 52.4565 38.3586C41.7747 47.3988 33.9402 58.5901 29.678 70.8966C25.4157 83.2032 24.8635 96.2275 28.0724 108.764C31.2812 121.301 38.1475 132.945 48.0358 142.62C57.9241 152.294 70.5149 159.685 84.6431 164.11L78.0862 179.327Z"></path> </mask> 
        <path d="M78.0862 179.327C60.9558 173.962 45.6895 165 33.7 153.27C21.7105 141.54 13.3852 127.421 9.49443 112.22C5.6037 97.0196 6.27327 81.2277 11.4412 66.306C16.6091 51.3844 26.1084 37.8151 39.06 26.8539C52.0116 15.8926 67.9971 7.89362 85.5371 3.59705C103.077 -0.699519 121.605 -1.15483 139.406 2.27324C157.208 5.70132 173.707 12.902 187.378 23.209C201.048 33.516 211.449 46.5963 217.616 61.2394L199.72 66.7179C194.633 54.6411 186.056 43.8532 174.781 35.3526C163.506 26.8519 149.898 20.9132 135.217 18.0859C120.535 15.2586 105.254 15.6341 90.7882 19.1777C76.3222 22.7213 63.1382 29.3184 52.4565 38.3586C41.7747 47.3988 33.9402 58.5901 29.678 70.8966C25.4157 83.2032 24.8635 96.2275 28.0724 108.764C31.2812 121.301 38.1475 132.945 48.0358 142.62C57.9241 152.294 70.5149 159.685 84.6431 164.11L78.0862 179.327Z" stroke="currentColor" stroke-width="40" mask="url(#path-22-inside-1)"></path> 
        <path d="M298.459 261.173L271.798 250.141L291.648 233.136L298.459 261.173Z" stroke="currentColor" stroke-width="10"></path> <path d="M25.7875 178.843L52.4478 167.811L32.5982 150.806L25.7875 178.843Z" stroke="#currentColor" stroke-width="10"></path> 
    </svg> 